<?plantuml 1.2026.2?><svg xmlns="http://www.w3.org/2000/svg" xmlns:xlink="http://www.w3.org/1999/xlink" contentStyleType="text/css" data-diagram-type="EBNF" height="365px" preserveAspectRatio="none" style="width:979px;height:365px;background:#222222;" version="1.1" viewBox="0 0 979 365" width="979px" zoomAndPan="magnify"><defs/><g><rect fill="#222222" height="365" style="stroke:none;stroke-width:1;" width="979" x="0" y="0"/><text fill="#D9D3D0" font-family="Verdana" font-size="14" font-weight="bold" lengthAdjust="spacing" textLength="86.3584" x="5" y="19.0752">Arguments</text><line style="stroke:#D9D3D0;stroke-width:1.5;" x1="59" x2="59" y1="45.522" y2="45.522"/><rect fill="#003153" height="27.0146" rx="5" ry="5" style="stroke:#D9D3D0;stroke-width:1.5;" width="41.3223" x="59" y="32.0146"/><text fill="#D9D3D0" font-family="Verdana" font-size="14" lengthAdjust="spacing" textLength="31.3223" x="64" y="51.0898">verb</text><line style="stroke:#D9D3D0;stroke-width:1.5;" x1="100.3223" x2="120.3223" y1="45.522" y2="45.522"/><line style="stroke:#D9D3D0;stroke-width:1.5;" x1="120.3223" x2="248.3193" y1="45.522" y2="45.522"/><path d="M169.5211,45.522 L169.5211,42.522 L175.5211,45.522 L169.5211,48.522 L169.5211,45.522" fill="#D9D3D0"/><path d="M120.3223,45.522 C129.3223,45.522 132.3223,48.2756 132.3223,57.2756 C132.3223,66.2756 135.3223,69.0293 144.3223,69.0293" fill="none" style="stroke:#D9D3D0;stroke-width:1.5;"/><path d="M224.3193,69.0293 C233.3193,69.0293 236.3193,66.2756 236.3193,57.2756 C236.3193,48.2756 239.3193,45.522 248.3193,45.522" fill="none" style="stroke:#D9D3D0;stroke-width:1.5;"/><line style="stroke:#D9D3D0;stroke-width:1.5;" x1="144.3223" x2="144.3223" y1="69.0293" y2="69.0293"/><rect fill="none" height="27.0146" style="stroke:#D9D3D0;stroke-width:0.5;" width="14.9219" x="144.3223" y="55.522"/><text fill="#D9D3D0" font-family="Verdana" font-size="14" lengthAdjust="spacing" textLength="4.9219" x="149.3223" y="74.5972">&#160;</text><line style="stroke:#D9D3D0;stroke-width:1.5;" x1="159.2441" x2="179.2441" y1="69.0293" y2="69.0293"/><rect fill="#003153" height="27.0146" rx="5" ry="5" style="stroke:#D9D3D0;stroke-width:1.5;" width="45.0752" x="179.2441" y="55.522"/><text fill="#D9D3D0" font-family="Verdana" font-size="14" lengthAdjust="spacing" textLength="35.0752" x="184.2441" y="74.5972">noun</text><line style="stroke:#D9D3D0;stroke-width:1.5;" x1="248.3193" x2="268.3193" y1="45.522" y2="45.522"/><line style="stroke:#D9D3D0;stroke-width:1.5;" x1="268.3193" x2="915.9761" y1="45.522" y2="45.522"/><path d="M525.382,45.522 L525.382,42.522 L531.382,45.522 L525.382,48.522 L525.382,45.522" fill="#D9D3D0"/><path d="M268.3193,45.522 C277.3193,45.522 280.3193,54.2756 280.3193,63.2756 C280.3193,72.2756 283.3193,81.0293 292.3193,81.0293" fill="none" style="stroke:#D9D3D0;stroke-width:1.5;"/><path d="M891.9761,81.0293 C900.9761,81.0293 903.9761,72.2756 903.9761,63.2756 C903.9761,54.2756 906.9761,45.522 915.9761,45.522" fill="none" style="stroke:#D9D3D0;stroke-width:1.5;"/><path d="M300.3193,73.0293 C300.3193,79.0293 302.3193,81.0293 308.3193,81.0293" fill="none" style="stroke:#D9D3D0;stroke-width:1.5;"/><line style="stroke:#D9D3D0;stroke-width:1.5;" x1="300.3193" x2="300.3193" y1="68.522" y2="73.0293"/><path d="M300.3193,68.522 C300.3193,62.522 302.3193,60.522 308.3193,60.522" fill="none" style="stroke:#D9D3D0;stroke-width:1.5;"/><line style="stroke:#D9D3D0;stroke-width:1.5;" x1="307.3193" x2="876.9761" y1="60.522" y2="60.522"/><path d="M647.1134,60.522 L647.1134,57.522 L641.1134,60.522 L647.1134,63.522 L647.1134,60.522" fill="#D9D3D0"/><path d="M883.9761,73.0293 C883.9761,79.0293 881.9761,81.0293 875.9761,81.0293" fill="none" style="stroke:#D9D3D0;stroke-width:1.5;"/><line style="stroke:#D9D3D0;stroke-width:1.5;" x1="883.9761" x2="883.9761" y1="68.522" y2="73.0293"/><path d="M875.9761,60.522 C881.9761,60.522 883.9761,62.522 883.9761,68.522" fill="none" style="stroke:#D9D3D0;stroke-width:1.5;"/><line style="stroke:#D9D3D0;stroke-width:1.5;" x1="292.3193" x2="307.3193" y1="81.0293" y2="81.0293"/><line style="stroke:#D9D3D0;stroke-width:1.5;" x1="876.9761" x2="891.9761" y1="81.0293" y2="81.0293"/><line style="stroke:#D9D3D0;stroke-width:1.5;" x1="307.3193" x2="307.3193" y1="81.0293" y2="81.0293"/><rect fill="none" height="27.0146" style="stroke:#D9D3D0;stroke-width:0.5;" width="14.9219" x="307.3193" y="67.522"/><text fill="#D9D3D0" font-family="Verdana" font-size="14" lengthAdjust="spacing" textLength="4.9219" x="312.3193" y="86.5972">&#160;</text><line style="stroke:#D9D3D0;stroke-width:1.5;" x1="322.2412" x2="342.2412" y1="81.0293" y2="81.0293"/><line style="stroke:#D9D3D0;stroke-width:1.5;" x1="342.2412" x2="529.7085" y1="81.0293" y2="81.0293"/><path d="M415.2281,81.0293 L415.2281,78.0293 L421.2281,81.0293 L415.2281,84.0293 L415.2281,81.0293" fill="#D9D3D0"/><path d="M342.2412,81.0293 C351.2412,81.0293 354.2412,89.783 354.2412,98.783 C354.2412,107.783 357.2412,116.5366 366.2412,116.5366" fill="none" style="stroke:#D9D3D0;stroke-width:1.5;"/><path d="M505.7085,116.5366 C514.7085,116.5366 517.7085,107.783 517.7085,98.783 C517.7085,89.783 520.7085,81.0293 529.7085,81.0293" fill="none" style="stroke:#D9D3D0;stroke-width:1.5;"/><path d="M374.2412,108.5366 C374.2412,114.5366 376.2412,116.5366 382.2412,116.5366" fill="none" style="stroke:#D9D3D0;stroke-width:1.5;"/><line style="stroke:#D9D3D0;stroke-width:1.5;" x1="374.2412" x2="374.2412" y1="104.0293" y2="108.5366"/><path d="M374.2412,104.0293 C374.2412,98.0293 376.2412,96.0293 382.2412,96.0293" fill="none" style="stroke:#D9D3D0;stroke-width:1.5;"/><line style="stroke:#D9D3D0;stroke-width:1.5;" x1="381.2412" x2="490.7085" y1="96.0293" y2="96.0293"/><path d="M444.9216,96.0293 L444.9216,93.0293 L438.9216,96.0293 L444.9216,99.0293 L444.9216,96.0293" fill="#D9D3D0"/><path d="M497.7085,108.5366 C497.7085,114.5366 495.7085,116.5366 489.7085,116.5366" fill="none" style="stroke:#D9D3D0;stroke-width:1.5;"/><line style="stroke:#D9D3D0;stroke-width:1.5;" x1="497.7085" x2="497.7085" y1="104.0293" y2="108.5366"/><path d="M489.7085,96.0293 C495.7085,96.0293 497.7085,98.0293 497.7085,104.0293" fill="none" style="stroke:#D9D3D0;stroke-width:1.5;"/><line style="stroke:#D9D3D0;stroke-width:1.5;" x1="366.2412" x2="381.2412" y1="116.5366" y2="116.5366"/><line style="stroke:#D9D3D0;stroke-width:1.5;" x1="490.7085" x2="505.7085" y1="116.5366" y2="116.5366"/><rect fill="none" height="27.0146" style="stroke:#D9D3D0;stroke-width:0.5;" width="16.3574" x="427.7961" y="103.0293"/><text fill="#D9D3D0" font-family="Verdana" font-size="14" lengthAdjust="spacing" textLength="6.3574" x="432.7961" y="122.1045">-</text><path d="M381.2412,150.0439 L381.2412,207.4419 A0,0 0 0 0 381.2412,207.4419 L490.7085,207.4419 A0,0 0 0 0 490.7085,207.4419 L490.7085,160.0439 L480.7085,150.0439 L439.9749,150.0439 L435.9749,130.0439 L431.9749,150.0439 L381.2412,150.0439 A0,0 0 0 0 381.2412,150.0439" fill="#003153" style="stroke:#D9D3D0;stroke-width:1;"/><path d="M480.7085,150.0439 L480.7085,160.0439 L490.7085,160.0439 L480.7085,150.0439" fill="#003153" style="stroke:#D9D3D0;stroke-width:1;"/><text fill="#D9D3D0" font-family="Verdana" font-size="13" lengthAdjust="spacing" textLength="56.6021" x="391.8115" y="168.1138">As many</text><text fill="#D9D3D0" font-family="Verdana" font-size="13" lengthAdjust="spacing" textLength="45.4238" x="391.8115" y="183.9131">dashes</text><text fill="#D9D3D0" font-family="Verdana" font-size="13" lengthAdjust="spacing" textLength="79.3267" x="391.8115" y="199.7124">as you want</text><line style="stroke:#D9D3D0;stroke-width:1.5;" x1="381.2412" x2="427.7961" y1="116.5366" y2="116.5366"/><path d="M402.5187,116.5366 L402.5187,113.5366 L408.5187,116.5366 L402.5187,119.5366 L402.5187,116.5366" fill="#D9D3D0"/><line style="stroke:#D9D3D0;stroke-width:1.5;" x1="444.1536" x2="490.7085" y1="116.5366" y2="116.5366"/><path d="M465.431,116.5366 L465.431,113.5366 L471.431,116.5366 L465.431,119.5366 L465.431,116.5366" fill="#D9D3D0"/><line style="stroke:#D9D3D0;stroke-width:1.5;" x1="529.7085" x2="549.7085" y1="81.0293" y2="81.0293"/><rect fill="#003153" height="27.0146" rx="5" ry="5" style="stroke:#D9D3D0;stroke-width:1.5;" width="49.2246" x="549.7085" y="67.522"/><text fill="#D9D3D0" font-family="Verdana" font-size="14" lengthAdjust="spacing" textLength="39.2246" x="554.7085" y="86.5972">name</text><line style="stroke:#D9D3D0;stroke-width:1.5;" x1="598.9331" x2="618.9331" y1="81.0293" y2="81.0293"/><line style="stroke:#D9D3D0;stroke-width:1.5;" x1="618.9331" x2="876.9761" y1="81.0293" y2="81.0293"/><path d="M720.1503,81.0293 L720.1503,78.0293 L726.1503,81.0293 L720.1503,84.0293 L720.1503,81.0293" fill="#D9D3D0"/><path d="M618.9331,81.0293 C627.9331,81.0293 630.9331,83.783 630.9331,92.783 C630.9331,101.783 633.9331,104.5366 642.9331,104.5366" fill="none" style="stroke:#D9D3D0;stroke-width:1.5;"/><path d="M852.9761,104.5366 C861.9761,104.5366 864.9761,101.783 864.9761,92.783 C864.9761,83.783 867.9761,81.0293 876.9761,81.0293" fill="none" style="stroke:#D9D3D0;stroke-width:1.5;"/><line style="stroke:#D9D3D0;stroke-width:1.5;" x1="642.9331" x2="642.9331" y1="104.5366" y2="104.5366"/><rect fill="none" height="27.0146" style="stroke:#D9D3D0;stroke-width:0.5;" width="21.457" x="642.9331" y="91.0293"/><text fill="#D9D3D0" font-family="Verdana" font-size="14" lengthAdjust="spacing" textLength="11.457" x="647.9331" y="110.1045">=</text><line style="stroke:#D9D3D0;stroke-width:1.5;" x1="664.3901" x2="684.3901" y1="104.5366" y2="104.5366"/><rect fill="#003153" height="27.0146" rx="5" ry="5" style="stroke:#D9D3D0;stroke-width:1.5;" width="47.7344" x="708.3901" y="91.0293"/><text fill="#D9D3D0" font-family="Verdana" font-size="14" lengthAdjust="spacing" textLength="37.7344" x="713.3901" y="110.1045">value</text><line style="stroke:#D9D3D0;stroke-width:1.5;" x1="684.3901" x2="708.3901" y1="104.5366" y2="104.5366"/><line style="stroke:#D9D3D0;stroke-width:1.5;" x1="756.1245" x2="852.9761" y1="104.5366" y2="104.5366"/><line style="stroke:#D9D3D0;stroke-width:1.5;" x1="708.3901" x2="708.3901" y1="141.5513" y2="141.5513"/><rect fill="none" height="27.0146" style="stroke:#D9D3D0;stroke-width:0.5;" width="16.4258" x="708.3901" y="128.0439"/><text fill="#D9D3D0" font-family="Verdana" font-size="14" lengthAdjust="spacing" textLength="6.4258" x="713.3901" y="147.1191">"</text><line style="stroke:#D9D3D0;stroke-width:1.5;" x1="724.8159" x2="744.8159" y1="141.5513" y2="141.5513"/><rect fill="#003153" height="27.0146" rx="5" ry="5" style="stroke:#D9D3D0;stroke-width:1.5;" width="47.7344" x="744.8159" y="128.0439"/><text fill="#D9D3D0" font-family="Verdana" font-size="14" lengthAdjust="spacing" textLength="37.7344" x="749.8159" y="147.1191">value</text><line style="stroke:#D9D3D0;stroke-width:1.5;" x1="792.5503" x2="812.5503" y1="141.5513" y2="141.5513"/><rect fill="none" height="27.0146" style="stroke:#D9D3D0;stroke-width:0.5;" width="16.4258" x="812.5503" y="128.0439"/><text fill="#D9D3D0" font-family="Verdana" font-size="14" lengthAdjust="spacing" textLength="6.4258" x="817.5503" y="147.1191">"</text><line style="stroke:#D9D3D0;stroke-width:1.5;" x1="828.9761" x2="828.9761" y1="141.5513" y2="141.5513"/><path d="M696.3901,129.5513 C696.3901,138.5513 699.3901,141.5513 708.3901,141.5513" fill="none" style="stroke:#D9D3D0;stroke-width:1.5;"/><line style="stroke:#D9D3D0;stroke-width:1.5;" x1="696.3901" x2="696.3901" y1="116.5366" y2="129.5513"/><path d="M684.3901,104.5366 C693.3901,104.5366 696.3901,107.5366 696.3901,116.5366" fill="none" style="stroke:#D9D3D0;stroke-width:1.5;"/><path d="M840.9761,129.5513 C840.9761,138.5513 837.9761,141.5513 828.9761,141.5513" fill="none" style="stroke:#D9D3D0;stroke-width:1.5;"/><line style="stroke:#D9D3D0;stroke-width:1.5;" x1="840.9761" x2="840.9761" y1="116.5366" y2="129.5513"/><path d="M840.9761,116.5366 C840.9761,107.5366 843.9761,104.5366 852.9761,104.5366" fill="none" style="stroke:#D9D3D0;stroke-width:1.5;"/><path d="M622.0955,165.0586 L622.0955,190.8579 L873.8137,190.8579 L873.8137,175.0586 L863.8137,165.0586 L622.0955,165.0586" fill="#003153" style="stroke:#D9D3D0;stroke-width:1;"/><path d="M863.8137,165.0586 L863.8137,175.0586 L873.8137,175.0586 L863.8137,165.0586" fill="#003153" style="stroke:#D9D3D0;stroke-width:1;"/><text fill="#D9D3D0" font-family="Verdana" font-size="13" lengthAdjust="spacing" textLength="221.5776" x="632.6658" y="183.1284">Optional for switch (boolean true)</text><line style="stroke:#D9D3D0;stroke-width:1.5;" x1="35" x2="59" y1="45.522" y2="45.522"/><line style="stroke:#D9D3D0;stroke-width:1.5;" x1="915.9761" x2="939.9761" y1="45.522" y2="45.522"/><line style="stroke:#D9D3D0;stroke-width:1.5;" x1="59" x2="59" y1="230.9492" y2="230.9492"/><rect fill="none" height="27.0146" style="stroke:#D9D3D0;stroke-width:0.5;" width="24" x="59" y="217.4419"/><text fill="#D9D3D0" font-family="Verdana" font-size="14" lengthAdjust="spacing" textLength="14" x="64" y="236.5171">@</text><line style="stroke:#D9D3D0;stroke-width:1.5;" x1="83" x2="103" y1="230.9492" y2="230.9492"/><line style="stroke:#D9D3D0;stroke-width:1.5;" x1="127" x2="127" y1="230.9492" y2="230.9492"/><rect fill="none" height="27.0146" style="stroke:#D9D3D0;stroke-width:0.5;" width="16.4258" x="127" y="217.4419"/><text fill="#D9D3D0" font-family="Verdana" font-size="14" lengthAdjust="spacing" textLength="6.4258" x="132" y="236.5171">"</text><line style="stroke:#D9D3D0;stroke-width:1.5;" x1="143.4258" x2="163.4258" y1="230.9492" y2="230.9492"/><rect fill="#003153" height="27.0146" rx="5" ry="5" style="stroke:#D9D3D0;stroke-width:1.5;" width="103.167" x="163.4258" y="217.4419"/><text fill="#D9D3D0" font-family="Verdana" font-size="14" lengthAdjust="spacing" textLength="93.167" x="168.4258" y="236.5171">response_file</text><line style="stroke:#D9D3D0;stroke-width:1.5;" x1="266.5928" x2="286.5928" y1="230.9492" y2="230.9492"/><rect fill="none" height="27.0146" style="stroke:#D9D3D0;stroke-width:0.5;" width="16.4258" x="286.5928" y="217.4419"/><text fill="#D9D3D0" font-family="Verdana" font-size="14" lengthAdjust="spacing" textLength="6.4258" x="291.5928" y="236.5171">"</text><line style="stroke:#D9D3D0;stroke-width:1.5;" x1="103" x2="127" y1="230.9492" y2="230.9492"/><line style="stroke:#D9D3D0;stroke-width:1.5;" x1="303.0186" x2="411.1479" y1="230.9492" y2="230.9492"/><rect fill="#003153" height="27.0146" rx="5" ry="5" style="stroke:#D9D3D0;stroke-width:1.5;" width="103.167" x="205.4905" y="254.4565"/><text fill="#D9D3D0" font-family="Verdana" font-size="14" lengthAdjust="spacing" textLength="93.167" x="210.4905" y="273.5317">response_file</text><path d="M127,301.4712 L127,343.0698 A0,0 0 0 0 127,343.0698 L387.1479,343.0698 A0,0 0 0 0 387.1479,343.0698 L387.1479,311.4712 L377.1479,301.4712 L261.074,301.4712 L257.074,281.4712 L253.074,301.4712 L127,301.4712 A0,0 0 0 0 127,301.4712" fill="#003153" style="stroke:#D9D3D0;stroke-width:1;"/><path d="M377.1479,301.4712 L377.1479,311.4712 L387.1479,311.4712 L377.1479,301.4712" fill="#003153" style="stroke:#D9D3D0;stroke-width:1;"/><text fill="#D9D3D0" font-family="Verdana" font-size="13" lengthAdjust="spacing" textLength="122.897" x="137.5703" y="319.541">Typically a .rsp file</text><text fill="#D9D3D0" font-family="Verdana" font-size="13" lengthAdjust="spacing" textLength="230.0073" x="137.5703" y="335.3403">May appear after other parameters</text><line style="stroke:#D9D3D0;stroke-width:1.5;" x1="127" x2="205.4905" y1="267.9639" y2="267.9639"/><path d="M164.2452,267.9639 L164.2452,264.9639 L170.2452,267.9639 L164.2452,270.9639 L164.2452,267.9639" fill="#D9D3D0"/><line style="stroke:#D9D3D0;stroke-width:1.5;" x1="308.6575" x2="387.1479" y1="267.9639" y2="267.9639"/><path d="M345.9027,267.9639 L345.9027,264.9639 L351.9027,267.9639 L345.9027,270.9639 L345.9027,267.9639" fill="#D9D3D0"/><line style="stroke:#D9D3D0;stroke-width:1.5;" x1="387.1479" x2="387.1479" y1="267.9639" y2="267.9639"/><path d="M115,255.9639 C115,264.9639 118,267.9639 127,267.9639" fill="none" style="stroke:#D9D3D0;stroke-width:1.5;"/><line style="stroke:#D9D3D0;stroke-width:1.5;" x1="115" x2="115" y1="242.9492" y2="255.9639"/><path d="M103,230.9492 C112,230.9492 115,233.9492 115,242.9492" fill="none" style="stroke:#D9D3D0;stroke-width:1.5;"/><path d="M399.1479,255.9639 C399.1479,264.9639 396.1479,267.9639 387.1479,267.9639" fill="none" style="stroke:#D9D3D0;stroke-width:1.5;"/><line style="stroke:#D9D3D0;stroke-width:1.5;" x1="399.1479" x2="399.1479" y1="242.9492" y2="255.9639"/><path d="M399.1479,242.9492 C399.1479,233.9492 402.1479,230.9492 411.1479,230.9492" fill="none" style="stroke:#D9D3D0;stroke-width:1.5;"/><line style="stroke:#D9D3D0;stroke-width:1.5;" x1="411.1479" x2="915.9761" y1="230.9492" y2="230.9492"/><path d="M661.562,230.9492 L661.562,227.9492 L667.562,230.9492 L661.562,233.9492 L661.562,230.9492" fill="#D9D3D0"/><path d="M47,218.9492 C47,227.9492 50,230.9492 59,230.9492" fill="none" style="stroke:#D9D3D0;stroke-width:1.5;"/><line style="stroke:#D9D3D0;stroke-width:1.5;" x1="47" x2="47" y1="57.522" y2="218.9492"/><path d="M35,45.522 C44,45.522 47,48.522 47,57.522" fill="none" style="stroke:#D9D3D0;stroke-width:1.5;"/><path d="M927.9761,218.9492 C927.9761,227.9492 924.9761,230.9492 915.9761,230.9492" fill="none" style="stroke:#D9D3D0;stroke-width:1.5;"/><line style="stroke:#D9D3D0;stroke-width:1.5;" x1="927.9761" x2="927.9761" y1="57.522" y2="218.9492"/><path d="M927.9761,57.522 C927.9761,48.522 930.9761,45.522 939.9761,45.522" fill="none" style="stroke:#D9D3D0;stroke-width:1.5;"/><ellipse cx="9" cy="45.522" fill="none" rx="4" ry="4" style="stroke:#D9D3D0;stroke-width:2;"/><ellipse cx="969.9761" cy="45.522" fill="#D9D3D0" rx="4" ry="4" style="stroke:#D9D3D0;stroke-width:1;"/><line style="stroke:#D9D3D0;stroke-width:1.5;" x1="13" x2="35" y1="45.522" y2="45.522"/><line style="stroke:#D9D3D0;stroke-width:1.5;" x1="939.9761" x2="965.9761" y1="45.522" y2="45.522"/><path d="M950.9761,45.522 L950.9761,42.522 L956.9761,45.522 L950.9761,48.522 L950.9761,45.522" fill="#D9D3D0"/><?plantuml-src xLRRJXin47tVhvYc3n2KqX149LIe4a8HIDpKqFQXHTLaTvAuSUojxGLIuDyxwyrjIG8bv15BYRpZCyTpEVPkrJeqZfgg5Rnn7UeHD6L2iH7A1OskKETei0Tx67RRHYSggckf3RojL2f1pRIJ7YbdOJS07gl-FnrNP9eb-045A9H0iHjSGccqUZkQfSDZRg7mhW2hQr2pq4FL_waWGjiXonEqqDS9NADoi5Q4-rBEFR_nv53O8n_4Rg4q4-1TuGevNxZZsKfXfPGzbj9v4OeptIvdMZdsizW9hL12YojahuKBEx3Qr5eIAd0ceIB7F-KyjjpxMH7k7bIpK9r889_h86X3DjRAqg-Ma5dm8vhXo4621v5Vz6CHefHzG5WtDeOKnAK_GRR4CQ41R3aoe5aY1k9K4yJFTZAXR5Ry65H9HK5G7GlBZnth-f8-CSXexGOYcD9LkRoviRNfrmwqSWFh_lR-vdvvP3tbtU4RcGWLUkDXFoPpB5Ht6izMccszw8YmgyXQsF2s4pHjeM0ho3eHwT2hUn1fYBwx8_7c6JBMh84jJe-Bz3ImGnZz5z099sc4IolG47y9-0W-xfd-b8w6hYTu8tf9xxk8N0SsosMFs7a_w4jW-RJxpaBD67rzhAKKiOxpnHk3vhLkZDYd5YRIJNLi2d6YbROnXXIDi7MT645c0diiMYGvqOOpwAZTvyoibYAQWF1TvKGeOhufpZ6AX6h3ncJ83VgJa0effKfhjgSDDs1UWeqEHlew9McXj3InyjNI7Zbif8Np1pjNlD29A-7wlkZpzRs7vg4iPuKp-nXCbVH-iZ7fTcYo0AQzyz0RZnfMQoktMXScb1JLE_mK3YNzQ3Z3hW5ymKWa5hRpX19Pdq_KPJb5y5lLd3EYcJXwElAv70rEdBJZ2sOnaeFnRV1ityFn1V5yt_HAvFFIzUxp9N0KQdx7Xrriqmpa_4vDSHXnXUwb75mhLbhqCfQaAKMuCCMfNbGlPytV77scxnagli_TLEEABqdn3JSi__CELvvZAFRQqfZgIsFwl3IcewKndRwGYLybTRIK4LuyyvPv_Jv__JvV-FjyOxrIhdnOh_m3?></g></svg>